<svg width="71" height="71" viewBox="0 0 71 71" fill="none" xmlns="http://www.w3.org/2000/svg">
    <path
        d="M35.5 0C55.1061 0 71 15.8939 71 35.5C71 55.1061 55.1061 71 35.5 71C15.8939 71 0 55.1061 0 35.5C0 15.9418 15.8164 0.0783347 35.3564 0.000976562C31.2756 13.6632 29.2872 24.3963 29.2871 35.2002C29.2871 46.004 31.2816 56.9357 35.3623 70.9971L35.3643 70.998C38.7165 52.9795 52.9553 38.7882 70.999 35.5078C70.9991 35.5053 71 35.5025 71 35.5C70.9999 35.497 70.999 35.4933 70.999 35.4902C52.9554 32.2097 38.7173 18.0196 35.3652 0.000976562C35.4101 0.000809681 35.4551 0 35.5 0Z"
        fill="#7f5af0" />
</svg>